<svg xmlns="http://www.w3.org/2000/svg" xmlns:xlink="http://www.w3.org/1999/xlink" fill="none" version="1.1" width="512" height="512" viewBox="0 0 512 512"><g><g><g><g><path d="M306.28001281738284,150.359921875C312.3200128173828,185.199921875,310.8800128173828,220.479921875,302.0000128173828,254.999921875L297.9200128173828,270.799921875C294.9600028173828,282.319921875,292.88002281738284,293.87992187500004,291.5600128173828,305.519921875L377.04001281738283,305.519921875C377.7200128173828,301.119921875,378.28001281738284,296.719921875,379.0800128173828,292.359921875L382.3600128173828,275.119921875C390.0000128173828,234.799921875,391.28001281738284,193.559921875,386.1200128173828,152.83992187500002L380.40001281738284,107.919921875L298.8400428173828,107.919921875L306.2000128173828,150.279921875L306.28001281738284,150.359921875Z" fill="#06004D" fill-opacity="1"/></g><g><path d="M294.52002380371096,428.1999444580078L375.6800238037109,428.1999444580078C374.16002380371094,406.71994445800783,371.5600238037109,377.4799444580078,372.52002380371096,356.2399444580078L291.04002380371094,356.2399444580078Q291.04002380371094,356.3999484580078,291.04002380371094,356.4799494580078Q296.2800338037109,428.1999444580078,294.48002380371094,428.1999444580078L294.52002380371096,428.1999444580078Z" fill="#06004D" fill-opacity="1"/></g><g><path d="M206.9600380859375,385.8399163818359C200.9200380859375,350.99991638183593,202.3600380859375,315.71991638183596,211.2400380859375,281.1999163818359L215.32003808593748,265.39991638183596C218.28003808593752,253.87991638183593,220.3600380859375,242.31991638183592,221.6800380859375,230.67991638183594L136.2000380859375,230.67991638183594C135.5200380859375,235.07991638183594,134.9600380859375,239.47991638183595,134.16003808593752,243.83991638183593L130.8800080859375,261.0799163818359C123.2400090859375,301.39991638183596,121.9600080859375,342.6399163818359,127.1200080859375,383.35991638183594L132.8400080859375,428.27991638183596L214.4000380859375,428.27991638183596L207.0400380859375,385.91991638183595L206.9600380859375,385.8399163818359Z" fill="#06004D" fill-opacity="1"/></g><g><path d="M218.72000900268554,107.99992370605469L137.56000900268555,107.99992370605469C139.08000900268556,129.47992370605468,141.68000900268555,158.7199237060547,140.72000900268554,179.95992370605467L222.20000900268553,179.95992370605467Q222.20000900268553,179.7999237060547,222.20000900268553,179.7199237060547Q216.96000900268555,107.99992370605469,218.76000900268554,107.99992370605469L218.72000900268554,107.99992370605469Z" fill="#E30012" fill-opacity="1"/></g></g></g><g></g></g></svg>