<svg t="1712838210479" class="icon" viewBox="0 0 1024 1024" version="1.1" xmlns="http://www.w3.org/2000/svg" p-id="17365" width="200" height="200"><path d="M389.6 274.6c0-37 10.6-71.5 29-100.7-22.4-13.2-48.4-20.8-76.3-20.8-82.8 0-150 67.2-150 150s67.2 150 150 150c40.8 0 77.8-16.3 104.8-42.7-35.5-34.3-57.5-82.5-57.5-135.8zM234 811.7c0-143 98.8-262.9 231.8-295.1-31.2-13.5-65.6-21-101.7-21h-43.6c-141.7 0-256.7 114.9-256.7 256.7v29.3c0 33.1 26.9 60 60 60H234v-29.9z" p-id="17366" fill="#6750A4"></path><path d="M655.8 512.4h-59c-167.3 0-303 135.7-303 303v65.4c0 33.1 26.9 60 60 60h545c33.1 0 60-26.9 60-60v-65.4c0-167.3-135.7-303-303-303zM812.6 754l-48.4 42.7-41.9 36.9c-5.2 4.6-13.3 0.9-13.3-6V773H534.8v-50H709v-54.6c0-6.9 8.1-10.6 13.3-6l41.9 36.9 48.4 42.7c3.6 3.2 3.6 8.8 0 12zM626.3 85.6c-104.4 0-189 84.6-189 189s84.6 189 189 189 189-84.6 189-189-84.6-189-189-189z" p-id="17367" fill="#6750A4"></path></svg>