<?xml version="1.0" encoding="UTF-8"?>
<svg id="_图层_2" data-name="图层 2" xmlns="http://www.w3.org/2000/svg" viewBox="0 0 448.48 131.29">
  <defs>
    <style>
      .cls-1 {
        fill: #ad6c2a;
      }

      .cls-2 {
        fill: #2c1e12;
        stroke: #231815;
        stroke-miterlimit: 10;
        stroke-width: .45px;
      }

      .cls-3 {
        fill: #06004d;
      }

      .cls-3, .cls-4, .cls-5 {
        stroke-width: 0px;
      }

      .cls-4 {
        fill: #fff;
      }

      .cls-6 {
        font-family: DFPZongYiW7, DFPZongYiW7-GB;
        font-size: 45.17px;
        letter-spacing: .14em;
      }

      .cls-5 {
        fill: #e60012;
      }
    </style>
  </defs>
  <g id="_图层_1-2" data-name="图层 1">
    <g>
      <g>
        <g>
          <path class="cls-4" d="m104.38,129.75c-3.13,0-5.67-2.54-5.66-5.68l.03-27.69c0-1.5.6-2.94,1.67-4.01,1.06-1.06,2.5-1.66,4-1.66,0,0,7.91,0,7.91,0,3.13,0,5.67,2.54,5.66,5.68l-.03,27.69c0,1.5-.6,2.94-1.67,4.01-1.06,1.06-2.5,1.66-4,1.66,0,0-7.91,0-7.91,0Z"/>
          <path class="cls-4" d="m112.3,124.09h-7.91s.03-27.7.03-27.7h7.91s-.03,27.7-.03,27.7Z"/>
          <path class="cls-4" d="m133.07,129.74c-3.13,0-5.67-2.54-5.66-5.68l.02-15.52h-4.31c-3.13,0-5.67-2.55-5.66-5.68v-6.5c0-1.5.61-2.95,1.67-4.01,1.06-1.06,2.5-1.66,4-1.66,0,0,27.74.03,27.74.03,3.13,0,5.67,2.54,5.66,5.68v6.5c0,1.5-.61,2.95-1.67,4.01-1.06,1.06-2.5,1.66-4,1.66,0,0-3.87,0-3.87,0l-.02,15.52c0,1.5-.6,2.95-1.67,4.01-1.06,1.06-2.5,1.66-4,1.66,0,0-8.23,0-8.23,0Z"/>
          <path class="cls-4" d="m150.85,102.9h-9.53s-.02,21.17-.02,21.17h-8.22s.02-21.19.02-21.19h-9.98s0-6.52,0-6.52l27.74.03v6.5Z"/>
          <path class="cls-4" d="m160.73,112.88c-2.96,0-5.41-2.28-5.64-5.22l-.85-10.75c-.12-1.58.42-3.13,1.49-4.3,1.07-1.16,2.58-1.82,4.16-1.82,0,0,3.94,0,3.94,0,1.59,0,3.1.67,4.17,1.84,1.07,1.17,1.61,2.73,1.47,4.31l-.92,10.75c-.25,2.93-2.7,5.19-5.65,5.19,0,0-2.17,0-2.17,0Z"/>
          <path class="cls-4" d="m163.82,96.46l-.92,10.75h-2.17s-.85-10.75-.85-10.75h3.93Z"/>
          <path class="cls-4" d="m173.72,129.83c-3.13,0-5.67-2.54-5.66-5.68v-6.46c0-1.48.58-2.89,1.61-3.95-.93-1.57-1.42-3.42-1.41-5.45v-6.87c.01-2.49,1.02-10.62,13.92-10.62l17.43.02c3.13,0,5.67,2.54,5.66,5.68v6.46c0,.76-.16,1.51-.45,2.2,1.97,2.04,2.79,4.73,2.78,7.2v7.77c-.01,2.98-1.34,5.63-3.76,7.45-1.99,1.5-4.56,2.27-7.64,2.27,0,0-22.47-.03-22.47-.03Z"/>
          <path class="cls-4" d="m201.92,120.13c0,1.2-.5,2.18-1.49,2.93-1,.75-2.41,1.13-4.25,1.12l-22.45-.03v-6.46s20.97.02,20.97.02v-4.47s-14.13-.02-14.13-.02c-4.43,0-6.64-1.65-6.64-4.93v-6.87c.01-3.31,2.77-4.97,8.28-4.96l17.39.02v6.46s-18.26-.02-18.26-.02v4.56s14.31.02,14.31.02c4.19,0,6.28,1.62,6.27,4.84v7.77Z"/>
          <path class="cls-4" d="m241.02,129.91c-4.13,0-7.45-1.13-9.85-3.34-1.76-1.61-3.85-4.6-3.84-9.71l.02-12.83c0-8.11,5.15-13.15,13.43-13.15l18.86.02c3.13,0,5.67,2.54,5.66,5.68v6.46c0,1.5-.61,2.95-1.67,4.01-1.06,1.06-2.5,1.66-4,1.66,0,0-13.22-.02-13.22-.02v3.39s13.16.02,13.16.02c3.13,0,5.67,2.54,5.66,5.68v6.5c0,1.5-.61,2.95-1.67,4.01-1.06,1.06-2.5,1.66-4,1.66,0,0-18.53-.02-18.53-.02Z"/>
          <path class="cls-4" d="m259.62,103.03l-18.88-.02-.02,14.73,18.84.02v6.5s-18.53-.02-18.53-.02c-5.36,0-8.04-2.46-8.03-7.37l.02-12.83c0-5,2.6-7.5,7.78-7.49l18.84.02v6.46Z"/>
          <path class="cls-4" d="m276.07,130c-3.63,0-6.76-1.29-9.07-3.71-.03-.03-.06-.06-.09-.1-2.17-2.4-3.27-5.52-3.27-9.28l.02-13.24c0-4.91,2.01-7.83,3.71-9.43,1.59-1.52,4.42-3.32,9-3.32l13.75.02c3.95,0,7.13,1.09,9.45,3.22,1.69,1.55,3.71,4.44,3.7,9.34v13.14c-.02,3.72-1.04,6.84-3.04,9.26-1.56,1.88-4.42,4.12-9.19,4.12,0,0-14.97-.02-14.97-.02Zm8.13-17.97v-3.25s-1.58,0-1.58,0v3.25s1.58,0,1.58,0Z"/>
          <path class="cls-4" d="m297.59,116.63c0,2.38-.58,4.26-1.72,5.64-1.15,1.38-2.76,2.07-4.84,2.07l-14.95-.02c-2.08,0-3.73-.65-4.97-1.95-1.2-1.33-1.8-3.15-1.8-5.47l.02-13.24c0-2.35.65-4.12,1.95-5.33,1.21-1.17,2.91-1.76,5.11-1.76l13.73.02c5,0,7.5,2.3,7.49,6.88v13.14Zm-7.73,1.08l.02-14.59-12.92-.02-.02,14.59,12.92.02Z"/>
          <path class="cls-4" d="m307.97,129.9c-3.13,0-5.67-2.54-5.66-5.68l.03-27.6c0-1.5.6-2.94,1.67-4.01,1.06-1.06,2.5-1.66,4-1.66,0,0,25.03.03,25.03.03,3.13,0,5.67,2.54,5.66,5.68v6.46c0,.77-.16,1.52-.46,2.21.29.68.45,1.43.45,2.21v5.56c0,1.5-.61,2.95-1.67,4.01-1.06,1.06-2.5,1.66-4,1.66,0,0-11.46-.01-11.46-.01v5.49c0,1.5-.61,2.95-1.67,4.01-1.06,1.06-2.5,1.66-4,1.66,0,0-7.91,0-7.91,0Z"/>
          <path class="cls-4" d="m333.01,113.1l-17.12-.02v11.16s-7.92,0-7.92,0l.03-27.6,25.02.03v6.46s-17.13-.02-17.13-.02v4.43s17.11.02,17.11.02v5.56Z"/>
          <path class="cls-4" d="m343.83,129.94c-3.13,0-5.67-2.54-5.66-5.68l.03-27.6c0-1.5.6-2.94,1.67-4.01,1.06-1.06,2.5-1.66,4-1.66,0,0,25.03.03,25.03.03,3.13,0,5.67,2.54,5.66,5.68v6.46c0,.77-.16,1.52-.46,2.21.29.68.45,1.43.45,2.21v5.56c0,1.5-.61,2.95-1.67,4.01-1.06,1.06-2.5,1.66-4,1.66,0,0-11.46-.01-11.46-.01v5.49c0,1.5-.61,2.95-1.67,4.01-1.06,1.06-2.5,1.66-4,1.66,0,0-7.91,0-7.91,0Z"/>
          <path class="cls-4" d="m368.88,113.14l-17.12-.02v11.16s-7.92,0-7.92,0l.03-27.6,25.02.03v6.46s-17.13-.02-17.13-.02v4.43s17.11.02,17.11.02v5.56Z"/>
          <path class="cls-4" d="m379.7,129.98c-3.13,0-5.67-2.54-5.66-5.68l.03-27.6c0-1.5.6-2.94,1.67-4.01,1.06-1.06,2.5-1.66,4-1.66,0,0,24.94.03,24.94.03,3.13,0,5.67,2.54,5.66,5.68v6.5c0,.8-.18,1.58-.5,2.3.25.65.39,1.35.39,2.08v5.56c0,.83-.19,1.64-.53,2.38.3.7.47,1.47.47,2.28v6.5c0,1.5-.61,2.95-1.67,4.01-1.06,1.06-2.5,1.66-4,1.66,0,0-24.81-.03-24.81-.03Z"/>
          <path class="cls-4" d="m404.66,103.24l-17.12-.02v4.38s17.02.02,17.02.02v5.56s-17.04-.02-17.04-.02v4.65s16.98.02,16.98.02v6.5s-24.81-.03-24.81-.03l.03-27.6,24.93.03v6.5Z"/>
          <path class="cls-4" d="m415.47,130.02c-3.13,0-5.67-2.54-5.66-5.68l.03-27.6c0-1.5.6-2.94,1.67-4.01,1.06-1.06,2.5-1.66,4-1.66,0,0,24.94.03,24.94.03,3.13,0,5.67,2.54,5.66,5.68v6.5c0,.8-.18,1.58-.5,2.3.25.65.39,1.35.39,2.08v5.56c0,.83-.19,1.64-.53,2.38.3.7.47,1.47.47,2.28v6.5c0,1.5-.61,2.95-1.67,4.01-1.06,1.06-2.5,1.66-4,1.66,0,0-24.81-.03-24.81-.03Z"/>
          <path class="cls-4" d="m440.44,103.29l-17.12-.02v4.38s17.02.02,17.02.02v5.56s-17.04-.02-17.04-.02v4.65s16.98.02,16.98.02v6.5s-24.81-.03-24.81-.03l.03-27.6,24.93.03v6.5Z"/>
          <g>
            <rect class="cls-4" x="110.31" y=".13" width="20.16" height="44.97" rx="6.46" ry="6.46" transform="translate(143 -97.78) rotate(90)"/>
            <rect class="cls-4" x="115.98" y="5.79" width="8.82" height="33.63" rx=".79" ry=".79" transform="translate(143 -97.78) rotate(90)"/>
            <rect class="cls-4" x="148.27" y="3.86" width="20.16" height="37.5" rx="5.67" ry="5.67" transform="translate(180.96 -135.74) rotate(90)"/>
            <rect class="cls-4" x="153.94" y="9.53" width="8.82" height="26.16" transform="translate(180.96 -135.74) rotate(90)"/>
            <path class="cls-4" d="m85.44,31.43h69.9c3.39,0,6.15,2.75,6.15,6.15v7.86c0,3.39-2.75,6.14-6.14,6.14h-69.89c-3.39,0-6.15-2.75-6.15-6.15v-7.86c0-3.39,2.75-6.14,6.14-6.14Z" transform="translate(161.9 -78.88) rotate(90)"/>
            <rect class="cls-4" x="115.98" y="6.09" width="8.82" height="70.85" rx=".48" ry=".48"/>
            <path class="cls-4" d="m137.35,82.6c-2.15,0-4.09-1.09-5.21-2.92-1.12-1.83-1.2-4.06-.22-5.97l24.58-47.59c1.05-2.04,3.13-3.31,5.43-3.31h7.83c2.12,0,4.12,1.12,5.22,2.93s1.18,4.1.21,5.98l-24.57,47.58c-1.05,2.04-3.13,3.31-5.43,3.31h-7.83Z"/>
            <path class="cls-4" d="m169.75,28.48h-7.83c-.16,0-.31.09-.39.24l-24.57,47.58c-.15.29.06.64.39.64h7.83c.16,0,.31-.09.39-.24l24.57-47.58c.15-.29-.06-.64-.39-.64Z"/>
            <path class="cls-4" d="m162.4,82.6c-2.26,0-4.33-1.24-5.39-3.24l-23.21-43.91c-.99-1.89-.93-4.19.17-6.01,1.1-1.82,3.1-2.95,5.23-2.95h7.35c2.28,0,4.35,1.25,5.41,3.27l23.19,43.88c.99,1.89.93,4.19-.17,6.01-1.1,1.82-3.1,2.95-5.23,2.95h-7.35Z"/>
            <path class="cls-4" d="m169.74,76.93h-7.35c-.16,0-.31-.09-.39-.23l-23.2-43.9c-.15-.29.06-.64.39-.64h7.35c.16,0,.31.09.39.23l23.2,43.9c.15.29-.06.64-.39.64Z"/>
            <path class="cls-4" d="m104.17,82.6c-3.17,0-5.77-2.53-5.98-5.71l-1.08-11.27c-.21-2.21-.16-4.43.14-6.62l1.84-13.12c.19-1.39.21-2.8.06-4.2l-.94-8.45c-.02-.21-.03-.42-.03-.63,0-3.37,2.69-6.12,5.99-6.12h8.18c3.15,0,5.73,2.49,5.97,5.65l.92,8.3c.26,2.34.23,4.71-.1,7.03l-1.84,13.12c-.18,1.3-.21,2.64-.08,3.96l1.09,11.4c.02.18.03.36.03.54,0,3.37-2.69,6.12-5.99,6.12h-8.18Z"/>
            <path class="cls-4" d="m112.35,32.16h-8.18c-.18,0-.32.2-.32.45l.94,8.45c.21,1.86.18,3.77-.08,5.62l-1.84,13.12c-.24,1.74-.28,3.53-.11,5.29l1.09,11.4c0,.25.14.45.32.45h8.18c.18,0,.32-.2.32-.45l-1.09-11.4c-.17-1.76-.13-3.55.11-5.29l1.84-13.12c.26-1.85.29-3.75.08-5.62l-.94-8.45c0-.25-.14-.45-.32-.45Z"/>
            <path class="cls-4" d="m128.7,74.24c-3.3,0-5.99-2.69-5.99-5.99,0-.29.02-.59.07-.88l.94-5.99c.11-.67.09-1.34-.04-2.01l-1.84-9.3c-.37-1.85-.42-3.74-.17-5.61l1.07-7.93c.31-3.02,2.86-5.38,5.96-5.38h8.18c3.3,0,5.99,2.69,5.99,5.99,0,.25-.02.51-.05.76l-1.09,8.08c-.09.63-.07,1.27.06,1.89l1.84,9.3c.39,1.97.43,3.97.12,5.96l-.91,5.82c-.35,2.97-2.88,5.28-5.95,5.28h-8.18Z"/>
            <path class="cls-4" d="m136.88,68.57h-8.18c-.18,0-.32-.14-.32-.32l.94-5.99c.21-1.32.18-2.67-.08-3.98l-1.84-9.3c-.24-1.23-.28-2.5-.11-3.75l1.09-8.08c0-.18.14-.32.32-.32h8.18c.18,0,.32.14.32.32l-1.09,8.08c-.17,1.25-.13,2.51.11,3.75l1.84,9.3c.26,1.31.29,2.66.08,3.98l-.94,5.99c0,.18-.14.32-.32.32Z"/>
            <path class="cls-4" d="m144.26,36.39c-.17,0-.41-.01-.57-.03l-6.81-.6c-2.02-.18-3.86-1.31-4.93-3.03-1.07-1.72-1.27-3.88-.54-5.77l8.83-22.8c.96-2.48,3.39-4.14,6.05-4.14.17,0,.41.01.57.03l6.81.6c2.02.18,3.86,1.31,4.93,3.04,1.07,1.72,1.27,3.88.54,5.77l-8.83,22.8c-.98,2.52-3.35,4.14-6.05,4.14Z"/>
            <path class="cls-4" d="m144.19,30.72l-6.81-.6c-.54-.05-.89-.6-.69-1.11l8.83-22.8c.13-.34.47-.55.83-.52l6.81.6c.54.05.89.6.69,1.11l-8.83,22.8c-.13.34-.47.55-.83.52Z"/>
            <path class="cls-4" d="m137.01,24.04c-1.96,0-3.8-.96-4.92-2.58l-3.35-4.85c-.91-1.31-1.25-2.9-.97-4.47.29-1.57,1.17-2.94,2.48-3.85l4.85-3.35c1-.69,2.18-1.06,3.4-1.06,1.96,0,3.8.96,4.92,2.57l3.36,4.86c.91,1.31,1.25,2.9.96,4.48-.29,1.58-1.18,2.95-2.5,3.86l-4.83,3.34c-1,.69-2.18,1.06-3.4,1.06Z"/>
            <rect class="cls-4" x="134.5" y="10.69" width="6.53" height="6.53" rx=".32" ry=".32" transform="translate(16.5 80.81) rotate(-34.65)"/>
          </g>
          <g>
            <path class="cls-4" d="m401.48,25.76h4.62c4.48,0,8.11,3.64,8.11,8.11v11.93c0,4.48-3.64,8.11-8.11,8.11h-4.62c-4.48,0-8.11-3.64-8.11-8.11v-11.93c0-4.48,3.64-8.11,8.11-8.11Z" transform="translate(443.62 -363.95) rotate(90)"/>
            <rect class="cls-4" x="399.04" y="31.43" width="9.51" height="16.82" rx="2.44" ry="2.44" transform="translate(443.62 -363.95) rotate(90)"/>
            <path class="cls-4" d="m380,81.31c-7.83,0-14.37-6.12-14.91-13.92l-.43-6.28c-.45-6.57-.08-13.19,1.1-19.67l.57-3.12c1.23-6.75,1.44-13.63.6-20.44l-.39-3.16c-.41-3.35.64-6.72,2.88-9.25,2.24-2.53,5.45-3.98,8.83-3.98h1.83c3.1,0,5.72,2.32,6.09,5.4l1.18,9.64c.96,7.94.73,15.95-.71,23.82l-.57,3.12c-1.01,5.55-1.33,11.23-.94,16.86l.99,14.43c.12,1.69-.48,3.37-1.64,4.6s-2.79,1.95-4.48,1.95Z"/>
            <path class="cls-4" d="m380,75.64h0c-4.87,0-8.92-3.78-9.25-8.64l-.43-6.29c-.42-6.11-.08-12.24,1.02-18.26l.57-3.12c1.33-7.31,1.55-14.77.65-22.15l-.39-3.16c-.45-3.65,2.4-6.86,6.08-6.86h1.83c.24,0,.43.18.46.41l1.18,9.65c.9,7.36.67,14.82-.66,22.12l-.57,3.12c-1.1,6.02-1.44,12.16-1.02,18.26l.99,14.43c.02.27-.19.5-.46.5Z"/>
            <path class="cls-4" d="m384.23,81.31c-3.21,0-5.9-2.51-6.12-5.72l-.99-14.49c-.45-6.57-.08-13.18,1.1-19.67l.57-3.12c1.23-6.74,1.43-13.61.61-20.41l-1.16-9.53c-.21-1.75.34-3.5,1.5-4.82,1.16-1.31,2.84-2.06,4.59-2.06h8.22c3.1,0,5.72,2.32,6.09,5.4l1.18,9.64c.97,7.94.73,15.95-.71,23.82l-.57,3.12c-1.01,5.55-1.33,11.23-.94,16.86l.99,14.43c.12,1.69-.48,3.37-1.64,4.6s-2.79,1.95-4.48,1.95h-8.22Z"/>
            <path class="cls-4" d="m392.45,75.64h-8.22c-.24,0-.45-.19-.46-.43l-.99-14.49c-.42-6.11-.08-12.24,1.02-18.26l.57-3.12c1.33-7.3,1.55-14.75.66-22.12l-1.16-9.53c-.03-.28.18-.52.46-.52h8.22c.24,0,.43.18.46.41l1.18,9.65c.9,7.36.67,14.82-.66,22.12l-.57,3.12c-1.1,6.02-1.44,12.16-1.02,18.26l.99,14.43c.02.27-.19.5-.46.5Z"/>
            <path class="cls-4" d="m413.33,82.62c-6.33,0-11.63-5.05-12.05-11.5l-.64-9.68c-.43-6.54-.07-13.12,1.06-19.56l.71-4.04c1.19-6.75,1.38-13.63.58-20.45l-.35-3c-.43-3.65.71-7.31,3.13-10.03,2.35-2.64,5.7-4.15,9.19-4.15,3.75,0,6.91,2.83,7.35,6.59l1.04,8.85c.96,8.2.72,16.48-.7,24.6l-.57,3.23c-1.02,5.8-1.34,11.72-.95,17.6l.89,13.57c.14,2.07-.6,4.12-2.01,5.63-1.39,1.49-3.35,2.34-5.38,2.34h-1.31Z"/>
            <path class="cls-4" d="m414.64,76.95h-1.31c-3.37,0-6.17-2.71-6.4-6.2l-.64-9.68c-.4-6.09-.07-12.2.98-18.21l.71-4.05c1.28-7.29,1.49-14.74.63-22.1l-.35-3c-.49-4.17,2.65-7.85,6.7-7.85h0c.88,0,1.62.68,1.72,1.58l1.04,8.86c.9,7.64.67,15.38-.66,22.96l-.57,3.24c-1.1,6.25-1.44,12.62-1.02,18.96l.89,13.57c.07,1.04-.73,1.92-1.73,1.92Z"/>
            <path class="cls-4" d="m402.28,2.07h5.69c4.18,0,7.58,3.4,7.58,7.58v10.33c0,4.18-3.4,7.58-7.58,7.58h-.18c-7.22,0-13.09-5.86-13.09-13.09v-4.82c0-4.18,3.4-7.58,7.58-7.58Z" transform="translate(419.94 -390.31) rotate(90)"/>
            <path class="cls-4" d="m402.28,7.74h5.69c1.05,0,1.91.86,1.91,1.91v10.33c0,1.05-.86,1.91-1.91,1.91h-.18c-4.1,0-7.42-3.33-7.42-7.42v-4.82c0-1.05.86-1.91,1.91-1.91Z" transform="translate(419.94 -390.31) rotate(90)"/>
            <path class="cls-4" d="m436.28,2.07h.18c4.18,0,7.58,3.4,7.58,7.58v10.33c0,4.18-3.4,7.58-7.58,7.58h-5.69c-4.18,0-7.58-3.4-7.58-7.58v-4.82c0-7.22,5.87-13.09,13.09-13.09Z" transform="translate(448.43 -418.8) rotate(90)"/>
            <path class="cls-4" d="m436.28,7.74h.18c1.05,0,1.91.86,1.91,1.91v10.33c0,1.05-.86,1.91-1.91,1.91h-5.69c-1.05,0-1.91-.86-1.91-1.91v-4.82c0-4.1,3.33-7.42,7.42-7.42Z" transform="translate(448.43 -418.8) rotate(90)"/>
            <path class="cls-4" d="m400.92,53.53h5.69c4.18,0,7.58,3.4,7.58,7.58v4.82c0,7.22-5.87,13.09-13.09,13.09h-.18c-4.18,0-7.58-3.4-7.58-7.58v-10.33c0-4.18,3.4-7.58,7.58-7.58Z" transform="translate(470.04 -337.49) rotate(90)"/>
            <path class="cls-4" d="m406.44,59.2h.18c1.05,0,1.91.86,1.91,1.91v10.33c0,1.05-.86,1.91-1.91,1.91h-5.69c-1.05,0-1.91-.86-1.91-1.91v-4.82c0-4.1,3.33-7.42,7.42-7.42Z" transform="translate(337.49 470.04) rotate(-90)"/>
            <path class="cls-4" d="m429.42,53.53h.18c7.22,0,13.09,5.87,13.09,13.09v4.82c0,4.18-3.4,7.58-7.58,7.58h-5.69c-4.18,0-7.58-3.4-7.58-7.58v-10.33c0-4.18,3.4-7.58,7.58-7.58Z" transform="translate(498.54 -365.98) rotate(90)"/>
            <path class="cls-4" d="m429.42,59.2h5.69c1.05,0,1.91.86,1.91,1.91v10.33c0,1.05-.86,1.91-1.91,1.91h-.18c-4.1,0-7.42-3.33-7.42-7.42v-4.82c0-1.05.86-1.91,1.91-1.91Z" transform="translate(365.98 498.54) rotate(-90)"/>
            <path class="cls-4" d="m433.02,27.05h5.1c4.34,0,7.87,3.53,7.87,7.87v9.26c0,4.34-3.53,7.87-7.87,7.87h-5.1c-4.34,0-7.87-3.53-7.87-7.87v-9.26c0-4.34,3.53-7.87,7.87-7.87Z" transform="translate(475.12 -396.02) rotate(90)"/>
            <rect class="cls-4" x="430.82" y="32.72" width="9.51" height="13.67" rx="2.2" ry="2.2" transform="translate(475.12 -396.02) rotate(90)"/>
            <path class="cls-4" d="m423.15,82.42c-3.8,0-6.98-3-7.23-6.82l-.92-13.97c-.45-6.79-.08-13.62,1.1-20.31l.57-3.24c1.24-7.04,1.44-14.21.61-21.31l-1.01-8.6c-.25-2.08.41-4.17,1.8-5.74,1.37-1.54,3.34-2.43,5.4-2.43h1.78c6.07,0,11.18,4.63,11.91,10.78l.55,4.67c.96,8.2.72,16.48-.7,24.6l-.58,3.31c-1.01,5.74-1.33,11.61-.94,17.44l.52,7.82c.24,3.61-1.03,7.19-3.48,9.81-2.38,2.54-5.71,4-9.16,4h-.19Z"/>
            <path class="cls-4" d="m423.34,76.75h-.19c-.83,0-1.52-.67-1.57-1.53l-.92-13.97c-.42-6.34-.08-12.71,1.02-18.96l.57-3.24c1.33-7.57,1.55-15.31.66-22.96l-1.01-8.6c-.11-.98.62-1.84,1.57-1.84h1.78c3.2,0,5.89,2.47,6.28,5.77l.55,4.67c.9,7.64.67,15.38-.66,22.96l-.58,3.31c-1.09,6.2-1.43,12.51-1.02,18.8l.52,7.82c.28,4.2-2.93,7.76-6.98,7.76Z"/>
            <path class="cls-4" d="m380.17,81.31c-7.85,0-14.44-6.14-14.99-13.97-.12-1.7.48-3.38,1.63-4.62,1.16-1.24,2.79-1.95,4.49-1.95h20.58c3.21,0,5.9,2.51,6.12,5.72l.56,8.27c.12,1.69-.48,3.37-1.64,4.6s-2.79,1.95-4.48,1.95h-12.28Z"/>
            <path class="cls-4" d="m370.84,66.94h0c-.02-.27.19-.5.46-.5h20.59c.24,0,.45.19.46.43l.56,8.27c.02.27-.19.5-.46.5h-12.28c-4.91,0-8.99-3.8-9.34-8.7Z"/>
            <path class="cls-4" d="m373.02,22.44c-3.1,0-5.72-2.32-6.09-5.4l-.43-3.54c-.37-3.04.58-6.1,2.61-8.4,2.03-2.3,4.96-3.61,8.02-3.61h15.41c3.1,0,5.72,2.32,6.09,5.4l1.06,8.67c.21,1.74-.33,3.49-1.49,4.81s-2.84,2.07-4.6,2.07h-20.58Z"/>
            <path class="cls-4" d="m372.55,16.36l-.43-3.54c-.37-3.01,1.98-5.65,5.01-5.65h15.41c.24,0,.43.18.46.41l1.06,8.67c.03.28-.18.52-.46.52h-20.58c-.24,0-.43-.18-.46-.41Z"/>
          </g>
          <g>
            <path class="cls-4" d="m280.95,81.22c-3.21,0-5.9-2.51-6.12-5.72l-.97-14.7c-.42-6.43-.06-12.91,1.08-19.25l.61-3.4c1.2-6.68,1.39-13.49.57-20.23l-1.18-9.63c-.21-1.74.33-3.49,1.49-4.81,1.16-1.32,2.84-2.07,4.6-2.07h8.22c3.1,0,5.72,2.32,6.09,5.4l1.19,9.71c.96,7.89.73,15.85-.68,23.67l-.6,3.32c-.99,5.47-1.3,11.05-.93,16.6l.97,14.57c.11,1.69-.49,3.37-1.64,4.6-1.16,1.23-2.79,1.94-4.48,1.94h-8.22Z"/>
            <path class="cls-4" d="m289.17,75.55h-8.22c-.25,0-.45-.19-.46-.43l-.97-14.69c-.39-5.98-.06-11.98,1-17.87l.61-3.4c1.3-7.24,1.51-14.62.62-21.92l-1.18-9.63c-.03-.28.18-.52.46-.52h8.22c.24,0,.43.18.46.41l1.19,9.72c.89,7.32.68,14.72-.63,21.98l-.6,3.32c-1.07,5.93-1.41,11.97-1.01,17.99l.97,14.57c.02.27-.2.5-.46.5Z"/>
            <path class="cls-4" d="m293.41,81.22c-3.21,0-5.9-2.51-6.12-5.72l-.98-14.62c-.43-6.49-.07-13.02,1.09-19.41l.59-3.29c1.21-6.71,1.41-13.54.59-20.3l-1.17-9.59c-.21-1.75.34-3.5,1.5-4.82,1.16-1.31,2.84-2.06,4.59-2.06h8.22c3.1,0,5.72,2.32,6.09,5.4l1.18,9.67c.96,7.92.73,15.91-.7,23.76l-.58,3.2c-1,5.52-1.32,11.16-.94,16.75l.98,14.49c.11,1.7-.49,3.38-1.64,4.61-1.16,1.23-2.79,1.94-4.48,1.94h-8.22Z"/>
            <path class="cls-4" d="m301.63,75.55h-8.22c-.25,0-.45-.19-.46-.43l-.98-14.61c-.4-6.03-.06-12.08,1.01-18.03l.6-3.29c1.31-7.26,1.53-14.67.64-22l-1.17-9.59c-.03-.28.18-.52.46-.52h8.22c.24,0,.43.18.46.41l1.18,9.68c.89,7.34.68,14.78-.65,22.06l-.58,3.2c-1.09,5.98-1.43,12.08-1.02,18.15l.98,14.49c.02.27-.19.5-.46.5Z"/>
            <path class="cls-4" d="m330.77,81.22c-3.21,0-5.9-2.51-6.12-5.72l-.99-14.49c-.45-6.57-.08-13.19,1.1-19.67l.57-3.12c1.23-6.74,1.43-13.61.61-20.41l-1.16-9.53c-.21-1.75.34-3.5,1.5-4.82,1.16-1.31,2.84-2.06,4.59-2.06h8.22c3.1,0,5.72,2.32,6.09,5.4l1.18,9.64c.97,7.94.73,15.95-.71,23.82l-.57,3.12c-1.01,5.55-1.33,11.23-.94,16.86l.99,14.43c.12,1.69-.48,3.37-1.64,4.6s-2.79,1.95-4.48,1.95h-8.22Z"/>
            <path class="cls-4" d="m338.99,75.55h-8.22c-.24,0-.45-.19-.46-.43l-.99-14.49c-.42-6.11-.08-12.24,1.02-18.26l.57-3.12c1.33-7.3,1.55-14.75.66-22.12l-1.16-9.53c-.03-.28.18-.52.46-.52h8.22c.24,0,.43.18.46.41l1.18,9.65c.9,7.36.67,14.82-.66,22.12l-.57,3.12c-1.1,6.02-1.44,12.16-1.02,18.26l.99,14.43c.02.27-.19.5-.46.5Z"/>
            <path class="cls-4" d="m343.22,81.22c-3.2,0-5.89-2.5-6.12-5.7l-.99-14.51c-.45-6.57-.08-13.19,1.1-19.67l.57-3.12c1.23-6.74,1.43-13.61.61-20.41l-1.16-9.53c-.21-1.74.33-3.49,1.49-4.81,1.16-1.32,2.84-2.07,4.6-2.07h8.22c3.1,0,5.72,2.32,6.09,5.4l1.18,9.64c.97,7.94.73,15.95-.71,23.82l-.57,3.12c-1.01,5.56-1.33,11.23-.94,16.86l.99,14.43c.12,1.69-.48,3.37-1.64,4.6s-2.79,1.95-4.48,1.95h-8.22Z"/>
            <path class="cls-4" d="m351.44,75.55h-8.22c-.24,0-.45-.19-.46-.43l-.99-14.49c-.42-6.11-.08-12.24,1.02-18.26l.57-3.12c1.33-7.3,1.55-14.75.66-22.12l-1.16-9.53c-.03-.28.18-.52.46-.52h8.22c.24,0,.43.18.46.41l1.18,9.65c.9,7.36.67,14.82-.66,22.12l-.57,3.12c-1.1,6.02-1.44,12.16-1.02,18.26l.99,14.43c.02.27-.19.5-.46.5Z"/>
            <path class="cls-4" d="m305.86,81.22c-3.21,0-5.9-2.51-6.12-5.72l-.98-14.57c-.44-6.51-.07-13.07,1.09-19.5l.59-3.23c1.22-6.72,1.42-13.56.59-20.34l-1.17-9.57c-.21-1.74.33-3.49,1.49-4.81,1.16-1.32,2.84-2.07,4.6-2.07h8.22c3.09,0,5.7,2.31,6.09,5.37l1.18,9.68c.96,7.93.73,15.93-.7,23.79l-.57,3.12c-1.01,5.52-1.32,11.17-.95,16.77l.98,14.54c.12,1.68-.48,3.36-1.64,4.6-1.16,1.24-2.79,1.95-4.49,1.95h-8.22Z"/>
            <path class="cls-4" d="m314.09,75.55h-8.22c-.24,0-.45-.19-.46-.43l-.98-14.57c-.41-6.05-.07-12.14,1.01-18.11l.59-3.23c1.32-7.27,1.54-14.7.64-22.04l-1.17-9.57c-.03-.28.18-.52.46-.52h8.22c.24,0,.43.18.46.41l1.18,9.66c.89,7.35.67,14.8-.65,22.09l-.57,3.12c-1.09,5.99-1.43,12.09-1.02,18.17l.98,14.54c.02.27-.2.5-.46.5Z"/>
            <path class="cls-4" d="m318.31,81.22c-3.21,0-5.9-2.51-6.12-5.72l-.98-14.28c-.44-6.52-.07-13.08,1.09-19.51l.59-3.23c1.22-6.72,1.42-13.56.59-20.34l-1.17-9.88c-.2-1.75.35-3.5,1.51-4.8s2.83-2.06,4.58-2.06h8.22c3.11,0,5.73,2.33,6.09,5.42l1.18,9.93c.96,7.91.73,15.91-.71,23.78l-.57,3.12c-1.01,5.52-1.32,11.17-.95,16.77l.98,14.25c.12,1.69-.48,3.37-1.64,4.61s-2.79,1.95-4.48,1.95h-8.22Z"/>
            <path class="cls-4" d="m326.53,75.55h-8.22c-.24,0-.45-.19-.46-.43l-.98-14.29c-.41-6.05-.07-12.14,1.01-18.11l.59-3.23c1.32-7.27,1.54-14.7.64-22.04l-1.17-9.86c-.03-.28.18-.52.46-.52h8.22c.24,0,.43.18.46.41l1.18,9.94c.89,7.35.67,14.8-.65,22.09l-.57,3.12c-1.09,5.99-1.43,12.09-1.02,18.17l.98,14.25c.02.27-.19.5-.46.5Z"/>
            <path class="cls-4" d="m281.96,21.52c-3.11,0-5.73-2.33-6.09-5.42l-.92-7.85c-.2-1.74.35-3.49,1.51-4.79s2.83-2.06,4.58-2.06h20.18c3.11,0,5.73,2.33,6.09,5.43l.92,7.84c.2,1.74-.35,3.49-1.51,4.79-1.16,1.31-2.83,2.06-4.58,2.06h-20.18Z"/>
            <path class="cls-4" d="m281.5,15.44l-.92-7.85c-.03-.28.18-.52.46-.52h20.18c.24,0,.43.18.46.41l.92,7.85c.03.28-.18.52-.46.52h-20.18c-.24,0-.43-.18-.46-.41Z"/>
            <path class="cls-4" d="m308.29,26.92c-3.14,0-5.76-2.35-6.1-5.48l-.9-8.21c-.19-1.73.37-3.47,1.53-4.77s2.83-2.04,4.57-2.04h19.16c3.06,0,5.67,2.28,6.08,5.31l1.1,8.23c.23,1.76-.3,3.53-1.47,4.86s-2.85,2.09-4.62,2.09h-19.35Z"/>
            <path class="cls-4" d="m307.82,20.84l-.91-8.23c-.03-.28.19-.52.46-.52h19.16c.23,0,.43.17.46.4l1.1,8.23c.04.28-.18.53-.46.53h-19.35c-.24,0-.44-.18-.46-.41Z"/>
            <path class="cls-4" d="m330.88,81.22c-3.2,0-5.89-2.5-6.12-5.69l-.59-8.27c-.12-1.7.48-3.38,1.63-4.62,1.16-1.24,2.79-1.95,4.49-1.95h20.58c3.21,0,5.9,2.51,6.12,5.72l.56,8.27c.12,1.69-.48,3.37-1.64,4.6s-2.79,1.95-4.48,1.95h-20.57Z"/>
            <path class="cls-4" d="m330.41,75.11l-.59-8.27c-.02-.27.19-.5.46-.5h20.59c.24,0,.45.19.46.43l.56,8.27c.02.27-.19.5-.46.5h-20.56c-.24,0-.45-.19-.46-.43Z"/>
            <path class="cls-4" d="m332.01,22.34c-3.1,0-5.72-2.32-6.09-5.4l-1.06-8.67c-.21-1.74.33-3.49,1.49-4.81s2.84-2.07,4.6-2.07h20.58c3.1,0,5.72,2.32,6.09,5.4l1.06,8.67c.21,1.74-.33,3.49-1.49,4.81s-2.84,2.07-4.6,2.07h-20.58Z"/>
            <path class="cls-4" d="m331.54,16.27l-1.06-8.67c-.03-.28.18-.52.46-.52h20.58c.24,0,.43.18.46.41l1.06,8.67c.03.28-.18.52-.46.52h-20.58c-.24,0-.43-.18-.46-.41Z"/>
            <path class="cls-4" d="m280.98,72.92c-3.38,0-6.13-2.75-6.13-6.13v-8.23c0-3.38,2.75-6.13,6.13-6.13h18.42c3.23,0,5.92,2.52,6.12,5.75l.52,8.23c.1,1.69-.5,3.36-1.65,4.59-1.15,1.23-2.78,1.93-4.47,1.93h-18.94Z"/>
            <path class="cls-4" d="m280.51,66.79v-8.23c0-.26.21-.47.47-.47h18.42c.25,0,.45.19.46.44l.52,8.23c.02.27-.2.49-.46.49h-18.94c-.26,0-.47-.21-.47-.47Z"/>
          </g>
          <g>
            <path class="cls-4" d="m199.22,8.79h8.24c3.29,0,5.96,2.67,5.96,5.96v25.56c0,3.29-2.67,5.96-5.96,5.96h-8.24c-3.29,0-5.96-2.67-5.96-5.96V14.75c0-3.29,2.67-5.96,5.96-5.96Z" transform="translate(230.87 -175.81) rotate(90)"/>
            <rect class="cls-4" x="198.93" y="14.46" width="8.82" height="26.14" rx=".29" ry=".29" transform="translate(175.81 230.87) rotate(-90)"/>
            <path class="cls-4" d="m228.57,11.68h8.31c3.27,0,5.92,2.65,5.92,5.92v19.85c0,3.27-2.65,5.92-5.92,5.92h-8.31c-3.27,0-5.92-2.65-5.92-5.92v-19.85c0-3.27,2.65-5.92,5.92-5.92Z" transform="translate(260.25 -205.2) rotate(90)"/>
            <rect class="cls-4" x="228.32" y="17.35" width="8.82" height="20.36" rx=".26" ry=".26" transform="translate(205.2 260.25) rotate(-90)"/>
            <rect class="cls-4" x="245.87" y="14.5" width="20.16" height="26.05" rx="5.89" ry="5.89" transform="translate(283.48 -228.42) rotate(90)"/>
            <rect class="cls-4" x="251.54" y="20.17" width="8.82" height="14.71" rx=".22" ry=".22" transform="translate(228.42 283.48) rotate(-90)"/>
            <path class="cls-4" d="m225.04,31.56h7.88c3.39,0,6.14,2.75,6.14,6.14v67.71c0,3.39-2.75,6.14-6.14,6.14h-7.88c-3.39,0-6.14-2.75-6.14-6.14V37.69c0-3.39,2.75-6.14,6.14-6.14Z" transform="translate(300.53 -157.43) rotate(90)"/>
            <rect class="cls-4" x="224.57" y="37.22" width="8.82" height="68.65" rx=".47" ry=".47" transform="translate(157.43 300.53) rotate(-90)"/>
            <path class="cls-4" d="m234.25,37.54h8.15c3.3,0,5.99,2.68,5.99,5.99v30.94c0,3.3-2.68,5.99-5.99,5.99h-8.15c-3.3,0-5.99-2.68-5.99-5.99v-30.94c0-3.3,2.68-5.99,5.99-5.99Z" transform="translate(297.33 -179.34) rotate(90)"/>
            <rect class="cls-4" x="233.94" y="43.21" width="8.79" height="31.57" rx=".32" ry=".32" transform="translate(179.34 297.33) rotate(-90)"/>
            <path class="cls-4" d="m194.33,71.11c-2.93,0-5.38-2.24-5.65-5.16l-1.17-12.99c-.52-5.75-.07-11.54,1.32-17.2l.72-2.92c1.35-5.46,1.57-11.02.65-16.52l-1.39-8.27c-.29-1.73.2-3.51,1.34-4.86,1.18-1.4,2.93-2.2,4.79-2.2h9.69c3.07,0,5.65,2.14,6.14,5.09l1.4,8.33c1.18,7.06.9,14.18-.83,21.17l-.71,2.85c-1.11,4.47-1.46,9.03-1.05,13.56l1.14,12.51c.16,1.66-.41,3.33-1.54,4.58-1.18,1.29-2.87,2.03-4.65,2.03h-10.21Z"/>
            <path class="cls-4" d="m204.54,65.44h-10.21s-1.17-12.99-1.17-12.99c-.46-5.13-.07-10.28,1.18-15.33l.72-2.92c1.53-6.21,1.78-12.55.73-18.82l-1.39-8.27c-.04-.24.22-.45.54-.45h9.69c.28,0,.51.15.54.35l1.4,8.34c1.05,6.28.8,12.64-.75,18.87l-.71,2.85c-1.26,5.09-1.66,10.28-1.19,15.44l1.14,12.51c.02.23-.23.43-.55.43Z"/>
            <path class="cls-4" d="m219.93,69.05c-3.23,0-5.89-2.36-6.19-5.49l-1.14-12.18c-.53-5.59-.08-11.23,1.33-16.74l.72-2.82c1.33-5.22,1.55-10.53.64-15.79l-1.39-7.98c-.3-1.73.18-3.51,1.32-4.86,1.18-1.41,2.94-2.21,4.81-2.21h9.69c3.05,0,5.63,2.12,6.13,5.05l1.4,8.04c1.19,6.87.91,13.79-.84,20.59l-.71,2.75c-1.1,4.27-1.45,8.63-1.04,12.95l1.14,12.07c.16,1.66-.4,3.33-1.53,4.58-1.18,1.29-2.87,2.04-4.66,2.04h-9.7Z"/>
            <path class="cls-4" d="m229.63,63.38h-9.7c-.29,0-.53-.16-.55-.36l-1.14-12.17c-.46-4.95-.07-9.92,1.18-14.81l.72-2.82c1.53-5.99,1.78-12.11.73-18.16l-1.39-7.98c-.04-.23.22-.43.54-.43h9.69c.28,0,.51.15.54.34l1.4,8.05c1.05,6.06.8,12.2-.75,18.2l-.71,2.75c-1.26,4.91-1.66,9.92-1.19,14.9l1.14,12.07c.02.22-.23.41-.55.41Z"/>
            <path class="cls-4" d="m246.15,69.05c-3.23,0-5.89-2.36-6.19-5.49l-1.14-12.18c-.53-5.6-.08-11.23,1.33-16.74l.72-2.82c1.33-5.22,1.55-10.53.64-15.79l-1.39-7.98c-.3-1.73.18-3.51,1.32-4.86,1.18-1.4,2.93-2.21,4.81-2.21h9.69c3.05,0,5.63,2.12,6.13,5.05l1.4,8.04c1.19,6.86.91,13.79-.84,20.59l-.71,2.75c-1.1,4.27-1.45,8.63-1.04,12.95l1.14,12.07c.16,1.66-.4,3.33-1.53,4.58-1.18,1.29-2.88,2.04-4.66,2.04h-9.7Z"/>
            <path class="cls-4" d="m255.84,63.38h-9.7c-.29,0-.53-.16-.55-.36l-1.14-12.17c-.46-4.95-.07-9.92,1.18-14.81l.72-2.82c1.53-5.99,1.78-12.11.73-18.16l-1.39-7.98c-.04-.23.22-.43.54-.43h9.69c.28,0,.51.15.54.34l1.4,8.05c1.05,6.06.8,12.2-.75,18.2l-.71,2.75c-1.26,4.91-1.66,9.92-1.19,14.9l1.14,12.07c.02.22-.23.41-.55.41Z"/>
          </g>
        </g>
        <g>
          <text class="cls-6" transform="translate(100.26 124.57) rotate(.07)"><tspan class="cls-1" x="0" y="0">IT&apos;S</tspan><tspan class="cls-2" x="109.22" y="0" xml:space="preserve"> COFFEE</tspan></text>
          <g>
            <rect class="cls-3" x="115.42" y="5.74" width="8.82" height="33.63" rx=".79" ry=".79" transform="translate(142.39 -97.27) rotate(90)"/>
            <rect class="cls-3" x="153.38" y="9.48" width="8.82" height="26.16" transform="translate(180.35 -135.23) rotate(90)"/>
            <rect class="cls-3" x="115.42" y="6.03" width="8.82" height="70.85" rx=".48" ry=".48"/>
            <path class="cls-3" d="m169.19,28.42h-7.83c-.16,0-.31.09-.39.24l-24.57,47.58c-.15.29.06.64.39.64h7.83c.16,0,.31-.09.39-.24l24.57-47.58c.15-.29-.06-.64-.39-.64Z"/>
            <path class="cls-3" d="m169.18,76.88h-7.35c-.16,0-.31-.09-.39-.23l-23.2-43.9c-.15-.29.06-.64.39-.64h7.35c.16,0,.31.09.39.23l23.2,43.9c.15.29-.06.64-.39.64Z"/>
            <path class="cls-3" d="m111.79,32.11h-8.18c-.18,0-.32.2-.32.45l.94,8.45c.21,1.86.18,3.77-.08,5.62l-1.84,13.12c-.24,1.74-.28,3.53-.11,5.29l1.09,11.4c0,.25.14.45.32.45h8.18c.18,0,.32-.2.32-.45l-1.09-11.4c-.17-1.76-.13-3.55.11-5.29l1.84-13.12c.26-1.85.29-3.75.08-5.62l-.94-8.45c0-.25-.14-.45-.32-.45Z"/>
            <path class="cls-3" d="m136.32,68.52h-8.18c-.18,0-.32-.14-.32-.32l.94-5.99c.21-1.32.18-2.67-.08-3.98l-1.84-9.3c-.24-1.23-.28-2.5-.11-3.75l1.09-8.08c0-.18.14-.32.32-.32h8.18c.18,0,.32.14.32.32l-1.09,8.08c-.17,1.25-.13,2.51.11,3.75l1.84,9.3c.26,1.31.29,2.66.08,3.98l-.94,5.99c0,.18-.14.32-.32.32Z"/>
            <path class="cls-3" d="m143.62,30.67l-6.81-.6c-.54-.05-.89-.6-.69-1.11l8.83-22.8c.13-.34.47-.55.83-.52l6.81.6c.54.05.89.6.69,1.11l-8.83,22.8c-.13.34-.47.55-.83.52Z"/>
            <rect class="cls-5" x="133.93" y="10.64" width="6.53" height="6.53" rx=".32" ry=".32" transform="translate(16.43 80.48) rotate(-34.65)"/>
          </g>
          <g>
            <rect class="cls-3" x="398.47" y="31.37" width="9.51" height="16.82" rx="2.44" ry="2.44" transform="translate(443.01 -363.44) rotate(90)"/>
            <path class="cls-3" d="m379.44,75.59h0c-4.87,0-8.92-3.78-9.25-8.64l-.43-6.29c-.42-6.11-.08-12.24,1.02-18.26l.57-3.12c1.33-7.31,1.55-14.77.65-22.15l-.39-3.16c-.45-3.65,2.4-6.86,6.08-6.86h1.83c.24,0,.43.18.46.41l1.18,9.65c.9,7.36.67,14.82-.66,22.12l-.57,3.12c-1.1,6.02-1.44,12.16-1.02,18.26l.99,14.43c.02.27-.19.5-.46.5Z"/>
            <path class="cls-3" d="m391.89,75.59h-8.22c-.24,0-.45-.19-.46-.43l-.99-14.49c-.42-6.11-.08-12.24,1.02-18.26l.57-3.12c1.33-7.3,1.55-14.75.66-22.12l-1.16-9.53c-.03-.28.18-.52.46-.52h8.22c.24,0,.43.18.46.41l1.18,9.65c.9,7.36.67,14.82-.66,22.12l-.57,3.12c-1.1,6.02-1.44,12.16-1.02,18.26l.99,14.43c.02.27-.19.5-.46.5Z"/>
            <path class="cls-3" d="m414.08,76.89h-1.31c-3.37,0-6.17-2.71-6.4-6.2l-.64-9.68c-.4-6.09-.07-12.2.98-18.21l.71-4.05c1.28-7.29,1.49-14.74.63-22.1l-.35-3c-.49-4.17,2.65-7.85,6.7-7.85h0c.88,0,1.62.68,1.72,1.58l1.04,8.86c.9,7.64.67,15.38-.66,22.96l-.57,3.24c-1.1,6.25-1.44,12.62-1.02,18.96l.89,13.57c.07,1.04-.73,1.92-1.73,1.92Z"/>
            <path class="cls-3" d="m401.72,7.69h5.69c1.05,0,1.91.86,1.91,1.91v10.33c0,1.05-.86,1.91-1.91,1.91h-.18c-4.1,0-7.42-3.33-7.42-7.42v-4.82c0-1.05.86-1.91,1.91-1.91Z" transform="translate(419.32 -389.8) rotate(90)"/>
            <path class="cls-3" d="m435.72,7.69h.18c1.05,0,1.91.86,1.91,1.91v10.33c0,1.05-.86,1.91-1.91,1.91h-5.69c-1.05,0-1.91-.86-1.91-1.91v-4.82c0-4.1,3.33-7.42,7.42-7.42Z" transform="translate(447.82 -418.29) rotate(90)"/>
            <path class="cls-3" d="m405.87,59.15h.18c1.05,0,1.91.86,1.91,1.91v10.33c0,1.05-.86,1.91-1.91,1.91h-5.69c-1.05,0-1.91-.86-1.91-1.91v-4.82c0-4.1,3.33-7.42,7.42-7.42Z" transform="translate(336.98 469.43) rotate(-90)"/>
            <path class="cls-3" d="m428.85,59.15h5.69c1.05,0,1.91.86,1.91,1.91v10.33c0,1.05-.86,1.91-1.91,1.91h-.18c-4.1,0-7.42-3.33-7.42-7.42v-4.82c0-1.05.86-1.91,1.91-1.91Z" transform="translate(365.48 497.92) rotate(-90)"/>
            <rect class="cls-3" x="430.26" y="32.66" width="9.51" height="13.67" rx="2.2" ry="2.2" transform="translate(474.51 -395.51) rotate(90)"/>
            <path class="cls-3" d="m422.78,76.7h-.19c-.83,0-1.52-.67-1.57-1.53l-.92-13.97c-.42-6.34-.08-12.71,1.02-18.96l.57-3.24c1.33-7.57,1.55-15.31.66-22.96l-1.01-8.6c-.11-.98.62-1.84,1.57-1.84h1.78c3.2,0,5.89,2.47,6.28,5.77l.55,4.67c.9,7.64.67,15.38-.66,22.96l-.58,3.31c-1.09,6.2-1.43,12.51-1.02,18.8l.52,7.82c.28,4.2-2.93,7.76-6.98,7.76Z"/>
            <path class="cls-3" d="m370.27,66.89h0c-.02-.27.19-.5.46-.5h20.59c.24,0,.45.19.46.43l.56,8.27c.02.27-.19.5-.46.5h-12.28c-4.91,0-8.99-3.8-9.34-8.7Z"/>
            <path class="cls-3" d="m371.99,16.31l-.43-3.54c-.37-3.01,1.98-5.65,5.01-5.65h15.41c.24,0,.43.18.46.41l1.06,8.67c.03.28-.18.52-.46.52h-20.58c-.24,0-.43-.18-.46-.41Z"/>
          </g>
          <g>
            <path class="cls-3" d="m288.61,75.49h-8.22c-.25,0-.45-.19-.46-.43l-.97-14.69c-.39-5.98-.06-11.98,1-17.87l.61-3.4c1.3-7.24,1.51-14.62.62-21.92l-1.18-9.63c-.03-.28.18-.52.46-.52h8.22c.24,0,.43.18.46.41l1.19,9.72c.89,7.32.68,14.72-.63,21.98l-.6,3.32c-1.07,5.93-1.41,11.97-1.01,17.99l.97,14.57c.02.27-.2.5-.46.5Z"/>
            <path class="cls-3" d="m301.07,75.49h-8.22c-.25,0-.45-.19-.46-.43l-.98-14.61c-.4-6.03-.06-12.08,1.01-18.03l.6-3.29c1.31-7.26,1.53-14.67.64-22l-1.17-9.59c-.03-.28.18-.52.46-.52h8.22c.24,0,.43.18.46.41l1.18,9.68c.89,7.34.68,14.78-.65,22.06l-.58,3.2c-1.09,5.98-1.43,12.08-1.02,18.15l.98,14.49c.02.27-.19.5-.46.5Z"/>
            <path class="cls-3" d="m338.43,75.49h-8.22c-.24,0-.45-.19-.46-.43l-.99-14.49c-.42-6.11-.08-12.24,1.02-18.26l.57-3.12c1.33-7.3,1.55-14.75.66-22.12l-1.16-9.53c-.03-.28.18-.52.46-.52h8.22c.24,0,.43.18.46.41l1.18,9.65c.9,7.36.67,14.82-.66,22.12l-.57,3.12c-1.1,6.02-1.44,12.16-1.02,18.26l.99,14.43c.02.27-.19.5-.46.5Z"/>
            <path class="cls-3" d="m350.88,75.49h-8.22c-.24,0-.45-.19-.46-.43l-.99-14.49c-.42-6.11-.08-12.24,1.02-18.26l.57-3.12c1.33-7.3,1.55-14.75.66-22.12l-1.16-9.53c-.03-.28.18-.52.46-.52h8.22c.24,0,.43.18.46.41l1.18,9.65c.9,7.36.67,14.82-.66,22.12l-.57,3.12c-1.1,6.02-1.44,12.16-1.02,18.26l.99,14.43c.02.27-.19.5-.46.5Z"/>
            <path class="cls-3" d="m313.52,75.49h-8.22c-.24,0-.45-.19-.46-.43l-.98-14.57c-.41-6.05-.07-12.14,1.01-18.11l.59-3.23c1.32-7.27,1.54-14.7.64-22.04l-1.17-9.57c-.03-.28.18-.52.46-.52h8.22c.24,0,.43.18.46.41l1.18,9.66c.89,7.35.67,14.8-.65,22.09l-.57,3.12c-1.09,5.99-1.43,12.09-1.02,18.17l.98,14.54c.02.27-.2.5-.46.5Z"/>
            <path class="cls-3" d="m325.97,75.49h-8.22c-.24,0-.45-.19-.46-.43l-.98-14.29c-.41-6.05-.07-12.14,1.01-18.11l.59-3.23c1.32-7.27,1.54-14.7.64-22.04l-1.17-9.86c-.03-.28.18-.52.46-.52h8.22c.24,0,.43.18.46.41l1.18,9.94c.89,7.35.67,14.8-.65,22.09l-.57,3.12c-1.09,5.99-1.43,12.09-1.02,18.17l.98,14.25c.02.27-.19.5-.46.5Z"/>
            <path class="cls-3" d="m280.93,15.39l-.92-7.85c-.03-.28.18-.52.46-.52h20.18c.24,0,.43.18.46.41l.92,7.85c.03.28-.18.52-.46.52h-20.18c-.24,0-.43-.18-.46-.41Z"/>
            <path class="cls-3" d="m307.26,20.79l-.91-8.23c-.03-.28.19-.52.46-.52h19.16c.23,0,.43.17.46.4l1.1,8.23c.04.28-.18.53-.46.53h-19.35c-.24,0-.44-.18-.46-.41Z"/>
            <path class="cls-3" d="m329.85,75.06l-.59-8.27c-.02-.27.19-.5.46-.5h20.59c.24,0,.45.19.46.43l.56,8.27c.02.27-.19.5-.46.5h-20.56c-.24,0-.45-.19-.46-.43Z"/>
            <path class="cls-3" d="m330.98,16.21l-1.06-8.67c-.03-.28.18-.52.46-.52h20.58c.24,0,.43.18.46.41l1.06,8.67c.03.28-.18.52-.46.52h-20.58c-.24,0-.43-.18-.46-.41Z"/>
            <path class="cls-3" d="m279.95,66.74v-8.23c0-.26.21-.47.47-.47h18.42c.25,0,.45.19.46.44l.52,8.23c.02.27-.2.49-.46.49h-18.94c-.26,0-.47-.21-.47-.47Z"/>
          </g>
          <g>
            <rect class="cls-3" x="198.37" y="14.4" width="8.82" height="26.14" rx=".29" ry=".29" transform="translate(175.3 230.25) rotate(-90)"/>
            <rect class="cls-3" x="227.75" y="17.29" width="8.82" height="20.36" rx=".26" ry=".26" transform="translate(204.69 259.64) rotate(-90)"/>
            <rect class="cls-3" x="250.98" y="20.12" width="8.82" height="14.71" rx=".22" ry=".22" transform="translate(227.91 282.86) rotate(-90)"/>
            <rect class="cls-3" x="224.01" y="37.17" width="8.82" height="68.65" rx=".47" ry=".47" transform="translate(156.92 299.92) rotate(-90)"/>
            <rect class="cls-3" x="233.38" y="43.15" width="8.79" height="31.57" rx=".32" ry=".32" transform="translate(178.83 296.71) rotate(-90)"/>
            <path class="cls-3" d="m203.97,65.39h-10.21s-1.17-12.99-1.17-12.99c-.46-5.13-.07-10.28,1.18-15.33l.72-2.92c1.53-6.21,1.78-12.55.73-18.82l-1.39-8.27c-.04-.24.22-.45.54-.45h9.69c.28,0,.51.15.54.35l1.4,8.34c1.05,6.28.8,12.64-.75,18.87l-.71,2.85c-1.26,5.09-1.66,10.28-1.19,15.44l1.14,12.51c.02.23-.23.43-.55.43Z"/>
            <path class="cls-3" d="m229.06,63.33h-9.7c-.29,0-.53-.16-.55-.36l-1.14-12.17c-.46-4.95-.07-9.92,1.18-14.81l.72-2.82c1.53-5.99,1.78-12.11.73-18.16l-1.39-7.98c-.04-.23.22-.43.54-.43h9.69c.28,0,.51.15.54.34l1.4,8.05c1.05,6.06.8,12.2-.75,18.2l-.71,2.75c-1.26,4.91-1.66,9.92-1.19,14.9l1.14,12.07c.02.22-.23.41-.55.41Z"/>
            <path class="cls-3" d="m255.28,63.33h-9.7c-.29,0-.53-.16-.55-.36l-1.14-12.17c-.46-4.95-.07-9.92,1.18-14.81l.72-2.82c1.53-5.99,1.78-12.11.73-18.16l-1.39-7.98c-.04-.23.22-.43.54-.43h9.69c.28,0,.51.15.54.34l1.4,8.05c1.05,6.06.8,12.2-.75,18.2l-.71,2.75c-1.26,4.91-1.66,9.92-1.19,14.9l1.14,12.07c.02.22-.23.41-.55.41Z"/>
          </g>
        </g>
      </g>
      <g>
        <path class="cls-4" d="m42.01,35.54c1.39,8.03,1.06,16.16-.99,24.12l-.94,3.64c-.68,2.65-1.16,5.32-1.46,8h19.7c.16-1.01.28-2.03.47-3.03l.75-3.97c1.76-9.3,2.06-18.8.87-28.18l-1.31-10.35h-18.79l1.7,9.77Z"/>
        <path class="cls-4" d="m39.3,99.58h18.71c-.35-4.95-.95-11.69-.73-16.59h-18.78s0,.04,0,.05c0,0,1.21,16.53.79,16.53Z"/>
        <path class="cls-4" d="m19.13,89.81c-1.39-8.03-1.06-16.16.99-24.12l.94-3.64c.68-2.65,1.16-5.32,1.46-8H2.81c-.16,1.01-.28,2.03-.47,3.03l-.75,3.97c-1.76,9.3-2.06,18.8-.87,28.18l1.31,10.35h18.79l-1.7-9.77Z"/>
        <path class="cls-5" d="m21.83,25.77H3.12c.35,4.95.95,11.69.73,16.59h18.78s0-.04,0-.05c0,0-1.21-16.53-.79-16.53Z"/>
      </g>
    </g>
  </g>
</svg>