<svg t="1712838010194" class="icon" viewBox="0 0 1084 1024" version="1.1" xmlns="http://www.w3.org/2000/svg" p-id="1646" width="200" height="200"><path d="M680.61513 747.254715c74.704249-20.373886 176.573679-47.539067 264.860518-67.912953 27.165181-6.791295 67.912953-20.373886 95.078134-20.373886 47.539067 13.582591 54.330363 88.286839 27.165182 129.034611-13.582591 20.373886-67.912953 54.330363-95.078135 67.912953-40.747772 20.373886-67.912953 40.747772-101.86943 61.121658-74.704249 40.747772-142.617202 88.286839-224.112746 101.86943C592.32829 1032.489119 517.624041 1012.115233 470.084974 998.532642c-95.078135-27.165181-183.364974-61.121658-305.60829-61.121658H76.189845c-27.165181 0-67.912953 6.791295-67.912954-20.373886s33.956477-20.373886 67.912954-20.373886H164.476684c115.452021 6.791295 203.73886 40.747772 298.816995 61.121658 54.330363 13.582591 115.452021 33.956477 162.991088 27.165182 47.539067-6.791295 88.286839-27.165181 129.034611-47.539068C836.814922 896.663212 904.727876 862.706736 979.432124 808.376373c33.956477-20.373886 88.286839-54.330363 54.330363-101.86943-101.86943 20.373886-210.530155 54.330363-319.190881 88.286839-33.956477 6.791295-74.704249 27.165181-108.660725 27.165182-20.373886 0-40.747772-6.791295-54.330363-20.373886-40.747772-13.582591-74.704249-20.373886-115.452021-33.956477-20.373886-6.791295-40.747772-20.373886-27.165181-40.747772 13.582591-20.373886 88.286839 6.791295 101.86943 13.582591 0 6.791295 20.373886 20.373886 33.956477 20.373886 20.373886 6.791295 40.747772 13.582591 54.330362 13.58259 20.373886 0 47.539067-20.373886 40.747773-54.330362-6.791295-27.165181-47.539067-47.539067-67.912954-54.330363-54.330363-33.956477-101.86943-54.330363-149.408497-88.286839-54.330363-27.165181-115.452021-81.495544-203.73886-61.121658-47.539067 13.582591-108.660725 54.330363-156.199793 81.495544-13.582591 13.582591-27.165181 33.956477-47.539067 27.165181-6.791295 0-13.582591-13.582591-13.582591-13.582591-6.791295-20.373886 27.165181-33.956477 47.539067-47.539067 13.582591-13.582591 33.956477-20.373886 54.330363-33.956477 54.330363-27.165181 88.286839-54.330363 142.617202-61.121658 20.373886 0 67.912953-6.791295 88.286839 6.791296 27.165181 6.791295 54.330363 27.165181 88.28684 47.539067 61.121658 33.956477 108.660725 67.912953 169.782383 101.86943 40.747772 13.582591 101.86943 33.956477 88.28684 122.243316z" fill="#E8DEF8" p-id="1647"></path><path d="M839.342558 624.079718c29.185592-4.488622 59.110798-19.56742 84.254507-42.456207 36.18487-32.944149 78.259067-112.806599 41.740999-124.280705-10.809832-3.396709-17.070558 18.336497-29.995241 32.664009-12.921501 14.329633-43.209617 24.971805-72.884394 23.416174-30.419697-1.590649-54.92354 5.830964-72.828153 22.051548-18.336497 16.693853-34.038184 33.404684-29.689634 55.239759 4.872754 24.450785 48.363573 38.145857 79.401916 33.365422z m-60.787399-106.714595c19.15782-17.446201 48.133306-25.605306 79.692667-23.952049 28.608332 1.49833 42.825484-3.619548 58.622673-18.004361 0.724759-0.665335 50.233302-40.367884 22.401725-67.535188-35.942931-35.081285-105.012526-25.353816-157.82652 22.727495-35.487702 32.308526-63.479511 96.397132-48.907938 119.303958 13.106139 20.598848 31.225103-19.070806 46.017393-32.539855zM658.23675 280.638607c-14.649036-25.639262-39.451059-48.172568-69.830433-63.444493-43.722147-21.974085-133.358756-32.634296-130.983925 5.569923 0.702475 11.309629 23.23578 9.365621 41.244385 16.298048 18.007544 6.927121 38.797397 31.389579 47.980502 59.650918 9.415494 28.97018 25.126732 49.185956 46.685911 60.089169 22.156601 11.135602 43.384705 19.806176 62.210387 7.921409 21.080605-13.310939 18.280257-58.822168 2.693173-86.084974z m-77.842039 94.993244c-23.153011-11.633277-41.152066-35.760415-50.919859-65.817202-8.85309-27.244767-18.726997-38.683855-37.816904-48.27656-0.880746-0.438251-55.688622-32.429496-71.078333 3.289534-19.869845 46.127751 13.964601 107.124195 77.77837 139.19927 42.880663 21.551751 112.743992 24.717132 128.907275 2.90434 14.533372-19.618354-28.994587-22.317894-46.870549-31.300443zM912.707648 216.151013c15.32286-25.243457 23.006574-57.859714 21.635581-91.83423-1.977965-48.894143-36.110591-132.459971-68.373488-111.860062-9.552381 6.09731 3.073061 24.862508 5.740767 43.973638 2.67195 19.109007-8.645107 49.152-28.910757 70.884145-20.772875 22.280754-30.837787 45.822143-29.920961 69.964136 1.001716 24.777617 3.709745 47.547556 23.231535 58.250214 21.861604 11.984514 60.309886-12.528879 76.597323-39.378902z m-120.821389-22.029264c-1.050528-25.889691 11.325546-53.329708 32.878359-76.444518 19.536647-20.952207 24.754272-35.133281 23.889442-56.480232-0.043507-0.982616 1.365687-64.429231-37.335146-60.571988-49.979689 4.984174-86.924336 64.148029-84.040158 135.51181 1.939764 47.952912 33.041774 110.590939 59.955466 114.152124 24.204601 3.201459 5.462748-36.177442 4.653098-56.167196z" fill="#E8DEF8" p-id="1648"></path></svg>