<svg xmlns="http://www.w3.org/2000/svg" xmlns:xlink="http://www.w3.org/1999/xlink" fill="none" version="1.1" width="512" height="512" viewBox="0 0 512 512"><g><g><g><g><g><path d="M305.6116,138.273C311.6028,173.0174,310.1804,208.19400000000002,301.3445,242.636L297.2929,258.385C294.36196,269.852,292.29306,281.404,291,293L375.91110000000003,293C376.6007,288.63,377.1179,284.217,377.9369,279.89L381.16949999999997,262.712C388.7555,222.473,390.0485,181.3681,384.9194,140.7826L379.273,96L298.28424,96L305.6116,138.273Z" fill="#FFFFFF" fill-opacity="1"/></g><g><path d="M293.44438,415L374,415C372.4931,393.5172,369.9098,364.2658,370.85699999999997,343L290,343Q290,343.173603,290,343.216995Q295.20963,414.9566,293.40134,414.9566L293.44438,415Z" fill="#FFFFFF" fill-opacity="1"/></g><g><path d="M206.3982,373.727C200.411,338.983,201.8324,303.8056,210.6624,269.3642L214.7113,253.6145C217.6403,242.1485,219.70780000000002,230.5959,221,219L136.1026,219C135.4134,223.37009,134.8965,227.78344,134.0781,232.1103L130.84763,249.2877C123.223661,289.4839,121.97454,330.589,127.05718,371.217L132.69978,416L213.6345,416L206.312,373.727L206.3982,373.727Z" fill="#FFFFFF" fill-opacity="1"/></g><g><path d="M217.5556,96L137,96C138.50692,117.4828,141.09021,146.7342,140.143,168L221,168Q221,167.8264,221,167.78300000000002Q215.7904,96.0434006,217.5987,96.0434006L217.5556,96Z" fill="#E60012" fill-opacity="1"/></g></g></g></g><g></g></g></svg>